<svg width="455.431" height="455.431" xmlns="http://www.w3.org/2000/svg" xmlns:svg="http://www.w3.org/2000/svg">
 <g>
  <title>Layer 1</title>
  <path d="m405.493,412.764c-69.689,56.889 -287.289,56.889 -355.556,0c-69.689,-56.889 -62.578,-300.089 0,-364.089s292.978,-64 355.556,0s69.689,307.201 0,364.089z" fill="#8DC640" id="svg_1"/>
  <g opacity="0.2" id="svg_2">
   <path d="m229.138,313.209c-62.578,49.778 -132.267,75.378 -197.689,76.8c-48.356,-82.489 -38.4,-283.022 18.489,-341.333c51.2,-52.622 211.911,-62.578 304.356,-29.867c22.755,93.867 -24.178,213.333 -125.156,294.4z" fill="#FFFFFF" id="svg_3"/>
  </g>
  <path d="m332.80181,135.58099l-207.31406,0c-9.53872,0 -17.2847,7.72862 -17.2847,17.24995l0,34.49992c0,9.53872 7.74598,17.24995 17.2847,17.24995l207.31406,0c9.55608,0 17.2847,-7.71125 17.2847,-17.24995l0,-34.49992c-0.01736,-9.50397 -7.74598,-17.24995 -17.2847,-17.24995zm0,103.50168l-207.31406,0c-9.53872,0 -17.2847,7.72862 -17.2847,17.24995l0,34.49992c0,9.53872 7.74598,17.24995 17.2847,17.24995l207.31406,0c9.55608,0 17.2847,-7.71125 17.2847,-17.24995l0,-34.49992c-0.01736,-9.50397 -7.74598,-17.24995 -17.2847,-17.24995z" fill="#ffffff" id="svg_5"/>
  <g id="svg_6"/>
  <g id="svg_7"/>
  <g id="svg_8"/>
  <g id="svg_9"/>
  <g id="svg_10"/>
  <g id="svg_11"/>
  <g id="svg_12"/>
  <g id="svg_13"/>
  <g id="svg_14"/>
  <g id="svg_15"/>
  <g id="svg_16"/>
  <g id="svg_17"/>
  <g id="svg_18"/>
  <g id="svg_19"/>
  <g id="svg_20"/>
 </g>
</svg>