<svg width="455.431" height="455.431" xmlns="http://www.w3.org/2000/svg" xmlns:svg="http://www.w3.org/2000/svg">
 <g>
  <title>Layer 1</title>
  <path id="svg_1" fill="#8DC640" d="m405.493,412.764c-69.689,56.889 -287.289,56.889 -355.556,0c-69.689,-56.889 -62.578,-300.089 0,-364.089s292.978,-64 355.556,0s69.689,307.201 0,364.089z"/>
  <g id="svg_2" opacity="0.2">
   <path id="svg_3" fill="#FFFFFF" d="m229.138,313.209c-62.578,49.778 -132.267,75.378 -197.689,76.8c-48.356,-82.489 -38.4,-283.022 18.489,-341.333c51.2,-52.622 211.911,-62.578 304.356,-29.867c22.755,93.867 -24.178,213.333 -125.156,294.4z"/>
  </g>
  <g id="svg_4"/>
  <g id="svg_5"/>
  <g id="svg_6"/>
  <g id="svg_7"/>
  <g id="svg_8"/>
  <g id="svg_9"/>
  <g id="svg_10"/>
  <g id="svg_11"/>
  <g id="svg_12"/>
  <g id="svg_13"/>
  <g id="svg_14"/>
  <g id="svg_15"/>
  <g id="svg_16"/>
  <g id="svg_17"/>
  <g id="svg_18"/>
  <path stroke="#000000" id="svg_21" d="m253.67192,223.26166l-113.15147,-113.26913l74.51917,0l113.15148,113.26913l-113.15148,113.26904l-74.51917,0l113.15147,-113.26904z" stroke-width="0" fill="#FFFFFF"/>
 </g>
</svg>