<svg id="Capa_1" enable-background="new 0 0 512 512" height="512" viewBox="0 0 512 512" width="512" xmlns="http://www.w3.org/2000/svg"><g><g><path d="m113.882 318.045h4.543l17.941-93.208h-49.465c-17.34 0-31.396 14.057-31.396 31.396v3.434c-.001 32.241 26.136 58.378 58.377 58.378z" fill="#eaac9d"/></g><g><path d="m330.728 453.977v-26.717c-26.197 17.92-55.127 5.113-74.727 5.113s-48.53 12.807-74.728-5.113v26.717c0 14.89-8.54 28.46-21.965 34.902l-31.584 15.155c-4.019 1.928-2.645 7.966 1.812 7.966h252.927c4.458 0 5.831-6.038 1.812-7.966l-31.584-15.155c-13.423-6.442-21.963-20.012-21.963-34.902z" fill="#ffcbbe"/></g><g><path d="m402.339 199.044c6.264-85.055-61.054-157.513-146.339-157.513s-152.603 72.458-146.339 157.513l9.977 135.475c5.26 71.425 93.315 120.922 136.362 120.922 43.048 0 131.102-49.498 136.362-120.922 0 0 9.977-135.475 9.977-135.475z" fill="#ffcbbe"/></g><g><path d="m398.118 318.045h-4.543l-35.553-93.208h67.077c17.34 0 31.396 14.057 31.396 31.396v3.434c.001 32.241-26.136 58.378-58.377 58.378z" fill="#df9380"/></g><g><path d="m300.291 48.322c40.128 28.684 65.059 77.005 61.137 130.266 0 0-9.977 135.475-9.977 135.475-5.26 71.425-93.314 120.922-136.362 120.922-8.934 0-19.807-2.132-31.476-6.15 25.567 16.944 53.369 26.605 72.387 26.605 43.048 0 131.102-49.498 136.362-120.922 0 0 9.978-135.475 9.977-135.475 5.128-69.631-39.06-130.819-102.048-150.721z" fill="#eaac9d"/></g><g><path d="m282.712 75.257c-8.632-2.011-17.577-3.043-26.712-3.043-9.788 0-19.357 1.185-28.558 3.49-2.793 8.184-10.558 14.087-19.675 14.087-3.422 0-6.653-.832-9.503-2.303-9.982 5.749-19.168 13.051-27.286 21.789-18.388 19.791-29.029 44.507-30.784 70.894-.598 8.994 6.546 16.62 15.559 16.62h200.492c9.014 0 16.157-7.626 15.559-16.62-1.754-26.388-12.396-51.103-30.784-70.894-6.092-6.557-12.786-12.306-19.966-17.197z" fill="#dd5790"/></g><g><path d="m371.806 180.17c-1.754-26.388-12.396-51.103-30.784-70.894-6.092-6.557-12.786-12.306-19.966-17.197-.602 1.701-9.064.868-9.796 2.513-1.485 3.339 4.561 9.064 2.565 12.126 9.981 16.006 15.811 34.071 17.069 52.997.598 8.994-6.546 16.62-15.559 16.62h-174.822c-.127 1.274-.234 2.553-.319 3.836-.598 8.994 6.546 16.62 15.559 16.62h200.492c9.015-.001 16.159-7.627 15.561-16.621z" fill="#da387d"/></g><g><path d="m256 171.447c-11.459 0-20.782-9.323-20.782-20.783v-1.11c0-23.345 13.004-44.974 33.94-56.446 9.812-5.377 15.352-16.097 14.113-27.312-1.385-12.556-11.504-22.675-24.06-24.062-1.07-.118-2.15-.178-3.212-.178-6.866 0-13.194 2.418-18.301 6.991-5.814 5.207-9.149 12.664-9.149 20.459 0 11.46-9.323 20.783-20.782 20.783s-20.782-9.323-20.782-20.783c0-19.596 8.376-38.338 22.981-51.421 12.662-11.339 29.055-17.585 46.162-17.585 2.545 0 5.118.142 7.647.422 31.732 3.504 57.307 29.079 60.812 60.813 3.093 28.01-10.824 54.829-35.455 68.326-7.616 4.173-12.348 11.835-12.348 19.995v1.11c-.001 11.458-9.324 20.781-20.784 20.781z" fill="#756e78"/></g><g><path d="m228.549 69.007c0-7.795 3.335-15.252 9.149-20.459 5.107-4.573 11.435-6.991 18.301-6.991.322 0 .647.006.972.017-4.416-5.489-10.902-9.259-18.215-10.067-1.07-.118-2.15-.178-3.212-.178-6.866 0-13.194 2.418-18.301 6.991-5.814 5.207-9.149 12.664-9.149 20.459 0 10.623-8.011 19.41-18.309 20.636 3.601 6.198 10.313 10.374 17.983 10.374 11.458.001 20.781-9.322 20.781-20.782z" fill="#665e66"/></g><g><path d="m324.587 61.235c-3.04-27.521-22.679-50.41-48.538-58.288 15.297 11.15 25.914 28.426 28.083 48.06 3.093 28.01-10.824 54.829-35.455 68.326-7.616 4.173-12.348 11.835-12.348 19.995v1.11c0 10.623-8.011 19.41-18.31 20.636 3.601 6.198 10.313 10.374 17.983 10.374 11.46 0 20.783-9.323 20.783-20.783v-1.11c0-8.16 4.732-15.821 12.348-19.995 24.63-13.496 38.547-40.316 35.454-68.325z" fill="#665e66"/></g><g><path d="m276.783 192.24c0-11.483-9.309-20.793-20.793-20.793s-20.793 9.309-20.793 20.793c0 1.563.173 3.085.5 4.55h40.586c.327-1.465.5-2.987.5-4.55z" fill="#756e78"/></g><g><path d="m235.574 255.067h-61.126c-4.237 0-7.671-3.434-7.671-7.671 0-4.236 3.434-7.671 7.671-7.671h61.126c4.237 0 7.671 3.434 7.671 7.671-.001 4.236-3.435 7.671-7.671 7.671z" fill="#eaac9d"/></g><g><path d="m256 336.166c-4.237 0-7.671-3.434-7.671-7.671s3.434-7.671 7.671-7.671c7.034 0 12.756-5.722 12.756-12.756v-40.246c0-15.493 12.605-28.097 28.097-28.097h40.699c4.237 0 7.671 3.434 7.671 7.671 0 4.236-3.434 7.671-7.671 7.671h-40.699c-7.034 0-12.756 5.722-12.756 12.756v40.246c0 15.493-12.605 28.097-28.097 28.097z" fill="#eaac9d"/></g><g><path d="m296.776 392.925h-81.552c-4.237 0-7.671-3.434-7.671-7.671s3.434-7.671 7.671-7.671h81.552c4.237 0 7.671 3.434 7.671 7.671s-3.434 7.671-7.671 7.671z" fill="#eaac9d"/></g></g></svg>