<svg width="256" height="512" xmlns="http://www.w3.org/2000/svg" xmlns:svg="http://www.w3.org/2000/svg">
 <g>
  <title>Layer 1</title>
  <path d="m246.71722,512l-237.43444,0c-4.5725,0 -8.28278,-7.473 -8.28278,-16.696l0,-478.608c0,-9.223 3.71029,-16.696 8.28278,-16.696l237.43493,0c4.572,0 8.28229,7.473 8.28229,16.696l0,478.609c0,9.222 -3.71029,16.695 -8.28278,16.695z" fill="#8dc640" id="svg_1"/>
  <path transform="rotate(-180 130.28045654296878,248.00099182128906) " d="m163.663,442.783c-4.641,0 -9.261,-1.924 -12.565,-5.69c-94.511,-107.799 -94.511,-270.386 0,-378.184c6.087,-6.93 16.62,-7.63 23.565,-1.549c6.924,6.076 7.62,16.626 1.544,23.56c-83.511,95.25 -83.511,238.913 0,334.163c6.076,6.934 5.38,17.484 -1.544,23.56c-3.174,2.775 -7.097,4.14 -11,4.14z" fill="#FFFFFF" id="svg_3"/>
  <g id="svg_5"/>
  <g id="svg_6"/>
  <g id="svg_7"/>
  <g id="svg_8"/>
  <g id="svg_9"/>
  <g id="svg_10"/>
  <g id="svg_11"/>
  <g id="svg_12"/>
  <g id="svg_13"/>
  <g id="svg_14"/>
  <g id="svg_15"/>
  <g id="svg_16"/>
  <g id="svg_17"/>
  <g id="svg_18"/>
  <g id="svg_19"/>
 </g>
</svg>